<svg width="22" height="20" viewBox="0 0 22 20" fill="none" xmlns="http://www.w3.org/2000/svg">
<path fill-rule="evenodd" clip-rule="evenodd" d="M0.149902 9.41788C0.149902 4.27623 4.92013 0 10.977 0C17.034 0 21.8042 4.27623 21.8042 9.41788C21.8042 12.6614 20.0892 15.3558 17.4118 17.0087C14.7293 18.6648 11.0797 19.2709 7.2673 18.2827L7.11775 18.244L1.88506 19.963L1.8093 19.9844L1.73524 19.9973C1.45998 20.0244 1.16785 19.8479 1.06691 19.5209C1.02342 19.3799 1.02253 19.2278 1.06443 19.0862L2.10984 15.5544L2.14536 15.3867L2.15511 15.2357L2.15512 15.219C2.15535 15.0016 2.10019 14.7878 1.99198 14.5978C0.726248 12.3752 0.149902 10.669 0.149902 9.41788ZM5.63616 9.77598C5.63616 9.08128 6.1807 8.51304 6.84366 8.51304C7.50662 8.51304 8.05116 9.08128 8.05116 9.77598C8.05116 10.4707 7.50662 11.0389 6.84366 11.0389C6.1807 11.0389 5.63616 10.4707 5.63616 9.77598ZM15.1047 8.51304C14.4417 8.51304 13.8972 9.08128 13.8972 9.77598C13.8972 10.4707 14.4417 11.0389 15.1047 11.0389C15.7676 11.0389 16.3122 10.4707 16.3122 9.77598C16.3122 9.08128 15.7676 8.51304 15.1047 8.51304ZM9.76948 9.77598C9.76948 9.08128 10.314 8.51304 10.977 8.51304C11.6399 8.51304 12.1845 9.08128 12.1845 9.77598C12.1845 10.4707 11.6399 11.0389 10.977 11.0389C10.314 11.0389 9.76948 10.4707 9.76948 9.77598Z" fill="#6D7B8F"/>
</svg>
