<svg width="14" height="14" viewBox="0 0 14 14" fill="none" xmlns="http://www.w3.org/2000/svg">
<path d="M13.4343 1.97569C13.7467 1.66327 13.7467 1.15673 13.4343 0.844314L13.1557 0.565685C12.8433 0.253266 12.3367 0.253266 12.0243 0.565685L7.42426 5.16574C7.18995 5.40005 6.81005 5.40005 6.57574 5.16574L1.97569 0.565685C1.66327 0.253266 1.15673 0.253266 0.844314 0.565685L0.565685 0.844315C0.253266 1.15673 0.253266 1.66327 0.565685 1.97569L5.16574 6.57574C5.40005 6.81005 5.40005 7.18995 5.16574 7.42426L0.565685 12.0243C0.253266 12.3367 0.253266 12.8433 0.565685 13.1557L0.844315 13.4343C1.15673 13.7467 1.66327 13.7467 1.97569 13.4343L6.57574 8.83426C6.81005 8.59995 7.18995 8.59995 7.42426 8.83426L12.0243 13.4343C12.3367 13.7467 12.8433 13.7467 13.1557 13.4343L13.4343 13.1557C13.7467 12.8433 13.7467 12.3367 13.4343 12.0243L8.83426 7.42426C8.59995 7.18995 8.59995 6.81005 8.83426 6.57574L13.4343 1.97569Z" fill="#A3AFBF"/>
</svg>
