<svg width="24" height="20" viewBox="0 0 24 20" fill="none" xmlns="http://www.w3.org/2000/svg">
<path fill-rule="evenodd" clip-rule="evenodd" d="M4.35379 4.28198L1.55483 1.48303L3.02742 0L21.5444 18.5274L20.0718 20L16.5 16.4282C15.1005 16.9817 13.5757 17.2846 11.9883 17.2846C6.76632 17.2846 2.30679 14.0366 0.5 9.4517C1.30418 7.39426 2.65144 5.6188 4.35379 4.28198ZM11.9883 3.70757C15.9465 3.70757 19.4766 5.93212 21.1998 9.4517C20.5836 10.7259 19.7168 11.8225 18.6828 12.7102L20.1554 14.1828C21.6071 12.8982 22.7559 11.2898 23.4766 9.4517C21.6698 4.86684 17.2102 1.6188 11.9883 1.6188C10.6619 1.6188 9.38778 1.82768 8.18673 2.2141L9.90997 3.93734C10.5888 3.80157 11.2781 3.70757 11.9883 3.70757ZM10.8708 4.89819L13.0327 7.06007C13.628 7.32116 14.1084 7.80158 14.3695 8.39688L16.5314 10.5588C16.615 10.2037 16.6776 9.82769 16.6776 9.44127C16.6881 6.85119 14.5784 4.75197 11.9883 4.75197C11.6019 4.75197 11.2364 4.80419 10.8708 4.89819ZM9.38771 9.31592L12.1136 12.0418L12.1135 12.0418C12.0718 12.0522 12.03 12.0627 11.9882 12.0627C10.547 12.0627 9.37726 10.8929 9.37726 9.45169C9.37726 9.42558 9.37988 9.40469 9.38249 9.3838C9.3851 9.36292 9.38771 9.34203 9.38771 9.31592ZM7.66443 7.59269L5.83676 5.76501C4.57305 6.72585 3.50777 7.95822 2.7767 9.4517C4.49994 12.9713 8.02997 15.1958 11.9882 15.1958C12.9804 15.1958 13.9412 15.0496 14.8603 14.799L13.8368 13.7755C13.2728 14.0157 12.6462 14.1514 11.9882 14.1514C9.39811 14.1514 7.28845 12.0418 7.28845 9.4517C7.28845 8.79373 7.42422 8.1671 7.66443 7.59269Z" fill="#A3AFBF"/>
</svg>
