<svg width="20" height="20" viewBox="0 0 20 20" fill="none" xmlns="http://www.w3.org/2000/svg">
<path d="M10.0002 3.33331C6.32016 3.33331 3.3335 6.31998 3.3335 9.99998C3.3335 13.68 6.32016 16.6666 10.0002 16.6666C13.6802 16.6666 16.6668 13.68 16.6668 9.99998C16.6668 6.31998 13.6802 3.33331 10.0002 3.33331ZM10.0002 15.3333C7.06016 15.3333 4.66683 12.94 4.66683 9.99998C4.66683 7.05998 7.06016 4.66665 10.0002 4.66665C12.9402 4.66665 15.3335 7.05998 15.3335 9.99998C15.3335 12.94 12.9402 15.3333 10.0002 15.3333ZM9.3335 12.6666H10.6668V14H9.3335V12.6666ZM10.4068 6.02665C9.0335 5.82665 7.82016 6.67331 7.4535 7.88665C7.3335 8.27331 7.62683 8.66665 8.0335 8.66665H8.16683C8.44016 8.66665 8.66016 8.47331 8.7535 8.21998C8.96683 7.62665 9.60016 7.21998 10.2868 7.36665C10.9202 7.49998 11.3868 8.11998 11.3335 8.76665C11.2668 9.65998 10.2535 9.85331 9.70016 10.6866C9.70016 10.6933 9.6935 10.6933 9.6935 10.7C9.68683 10.7133 9.68016 10.72 9.6735 10.7333C9.6135 10.8333 9.5535 10.9466 9.50683 11.0666C9.50016 11.0866 9.48683 11.1 9.48016 11.12C9.4735 11.1333 9.4735 11.1466 9.46683 11.1666C9.38683 11.3933 9.3335 11.6666 9.3335 12H10.6668C10.6668 11.72 10.7402 11.4866 10.8535 11.2866C10.8668 11.2666 10.8735 11.2466 10.8868 11.2266C10.9402 11.1333 11.0068 11.0466 11.0735 10.9666C11.0802 10.96 11.0868 10.9466 11.0935 10.94C11.1602 10.86 11.2335 10.7866 11.3135 10.7133C11.9535 10.1066 12.8202 9.61331 12.6402 8.33998C12.4802 7.17998 11.5668 6.19998 10.4068 6.02665Z" fill="#6D7B8F"/>
</svg>
