<svg width="24" height="24" viewBox="0 0 24 24" fill="none" xmlns="http://www.w3.org/2000/svg">
<path d="M0 12C0 5.37258 5.37258 0 12 0C18.6274 0 24 5.37258 24 12C24 18.6274 18.6274 24 12 24C5.37258 24 0 18.6274 0 12Z" fill="#C7CED7"/>
<path d="M15.6364 17C15.6364 17.552 15.2282 18 14.7273 18C14.2264 18 13.8182 17.552 13.8182 17C13.8182 16.448 14.2264 16 14.7273 16C15.2282 16 15.6364 16.448 15.6364 17ZM17.4545 17C17.4545 15.343 16.2336 14 14.7273 14C13.2209 14 12 15.343 12 17C12 18.657 13.2209 20 14.7273 20C16.2336 20 17.4545 18.657 17.4545 17ZM12 7C12 5.343 10.7791 4 9.27273 4C7.76636 4 6.54545 5.343 6.54545 7C6.54545 8.657 7.76636 10 9.27273 10C10.7791 10 12 8.657 12 7ZM19.2727 17C19.2727 17.343 19.2409 17.677 19.1809 18H21.0909C21.5927 18 22 17.553 22 17C22 16.447 21.5927 16 21.0909 16H19.1809C19.2409 16.323 19.2727 16.657 19.2727 17ZM13.8182 7C13.8182 7.343 13.7864 7.677 13.7264 8H21.0909C21.5927 8 22 7.553 22 7C22 6.447 21.5927 6 21.0909 6H13.7264C13.7864 6.323 13.8182 6.657 13.8182 7ZM10.1818 17C10.1818 16.657 10.2136 16.323 10.2736 16H2.90909C2.40727 16 2 16.447 2 17C2 17.553 2.40727 18 2.90909 18H10.2736C10.2136 17.677 10.1818 17.343 10.1818 17ZM4.72727 7C4.72727 6.657 4.75909 6.323 4.81909 6L2.90909 6C2.40727 6 2 6.447 2 7C2 7.553 2.40727 8 2.90909 8H4.81909C4.75909 7.677 4.72727 7.343 4.72727 7Z" fill="#6D7B8F"/>
</svg>
