<svg width="18" height="18" viewBox="0 0 18 18" fill="none" xmlns="http://www.w3.org/2000/svg">
<path d="M9.00002 15.3274L5.72962 17.1106C4.87865 17.5747 3.81264 17.261 3.34862 16.41C3.12764 15.868 3.12764 15.868 3.15796 15.2835L3.79782 11.4141L1.06512 8.65135C0.383507 7.96224 0.389588 6.85105 1.0787 6.16944C1.51335 5.82258 1.51335 5.82258 2.05132 5.68178L5.77264 5.12094L7.41529 1.66881C7.83175 0.793588 8.87887 0.421688 9.7541 0.838152C10.2649 1.15806 10.2649 1.15806 10.5848 1.66881L12.2274 5.12094L15.9487 5.68178C16.9072 5.82623 17.567 6.7203 17.4226 7.67873C17.2818 8.2167 17.2818 8.2167 16.9349 8.65135L14.2022 11.4141L14.8421 15.2835C15.0002 16.2398 14.3532 17.1432 13.3969 17.3013C12.8124 17.3316 12.8124 17.3316 12.2704 17.1106L9.00002 15.3274ZM9.00002 13.3626L13.0962 15.5962C13.1021 15.5994 13.1089 15.6005 13.1155 15.5994C13.1318 15.5967 13.1429 15.5813 13.1402 15.5649L12.3567 10.827L15.7085 7.43828C15.713 7.43376 15.7159 7.42794 15.7169 7.42166C15.7193 7.40527 15.708 7.38999 15.6917 7.38752L11.0637 6.69004L9.02711 2.41C9.02415 2.40378 9.01914 2.39876 9.01291 2.3958C8.99795 2.38868 8.98005 2.39504 8.97293 2.41L6.93634 6.69004L2.30839 7.38752C2.30211 7.38847 2.29628 7.39139 2.29176 7.39586C2.27998 7.40751 2.27988 7.4265 2.29153 7.43828L5.64334 10.827L4.85985 15.5649C4.85875 15.5715 4.8599 15.5783 4.8631 15.5842C4.87104 15.5987 4.88926 15.6041 4.90381 15.5962L9.00002 13.3626Z" fill="black"/>
</svg>
