<svg width="10" height="12" viewBox="0 0 10 12" fill="none" xmlns="http://www.w3.org/2000/svg">
<path d="M4.9998 0.199997C2.6778 0.199997 0.799805 2.078 0.799805 4.4C0.799805 6.72595 3.08979 9.86976 4.28791 11.3554C4.65978 11.8166 5.33983 11.8166 5.7117 11.3554C6.90982 9.86976 9.19981 6.72595 9.19981 4.4C9.19981 2.078 7.32181 0.199997 4.9998 0.199997ZM4.9998 5.9C4.1718 5.9 3.4998 5.228 3.4998 4.4C3.4998 3.572 4.1718 2.9 4.9998 2.9C5.82781 2.9 6.4998 3.572 6.4998 4.4C6.4998 5.228 5.82781 5.9 4.9998 5.9Z" fill="#525E6D"/>
</svg>
