<svg width="14" height="14" viewBox="0 0 14 14" fill="none" xmlns="http://www.w3.org/2000/svg">
<path d="M7.00016 0.333328C3.32016 0.333328 0.333496 3.31999 0.333496 6.99999C0.333496 10.68 3.32016 13.6667 7.00016 13.6667C10.6802 13.6667 13.6668 10.68 13.6668 6.99999C13.6668 3.31999 10.6802 0.333328 7.00016 0.333328ZM7.00016 12.3333C4.06016 12.3333 1.66683 9.93999 1.66683 6.99999C1.66683 4.05999 4.06016 1.66666 7.00016 1.66666C9.94016 1.66666 12.3335 4.05999 12.3335 6.99999C12.3335 9.93999 9.94016 12.3333 7.00016 12.3333ZM6.3335 9.66666H7.66683V11H6.3335V9.66666ZM7.40683 3.02666C6.0335 2.82666 4.82016 3.67333 4.4535 4.88666C4.3335 5.27333 4.62683 5.66666 5.0335 5.66666H5.16683C5.44016 5.66666 5.66016 5.47333 5.7535 5.21999C5.96683 4.62666 6.60016 4.21999 7.28683 4.36666C7.92016 4.49999 8.38683 5.11999 8.3335 5.76666C8.26683 6.65999 7.2535 6.85333 6.70016 7.68666C6.70016 7.69333 6.6935 7.69333 6.6935 7.69999C6.68683 7.71333 6.68016 7.71999 6.6735 7.73333C6.6135 7.83333 6.5535 7.94666 6.50683 8.06666C6.50016 8.08666 6.48683 8.09999 6.48016 8.11999C6.4735 8.13333 6.4735 8.14666 6.46683 8.16666C6.38683 8.39333 6.3335 8.66666 6.3335 8.99999H7.66683C7.66683 8.71999 7.74016 8.48666 7.8535 8.28666C7.86683 8.26666 7.8735 8.24666 7.88683 8.22666C7.94016 8.13333 8.00683 8.04666 8.0735 7.96666C8.08016 7.95999 8.08683 7.94666 8.0935 7.93999C8.16016 7.85999 8.2335 7.78666 8.3135 7.71333C8.9535 7.10666 9.82016 6.61333 9.64016 5.33999C9.48016 4.17999 8.56683 3.19999 7.40683 3.02666Z" fill="#6D7B8F"/>
</svg>
