<svg width="24" height="24" viewBox="0 0 24 24" fill="none" xmlns="http://www.w3.org/2000/svg">
<path d="M18.4343 6.97569C18.7467 6.66327 18.7467 6.15673 18.4343 5.84431L18.1557 5.56569C17.8433 5.25327 17.3367 5.25327 17.0243 5.56569L12.4243 10.1657C12.1899 10.4001 11.8101 10.4001 11.5757 10.1657L6.97569 5.56569C6.66327 5.25327 6.15673 5.25327 5.84431 5.56569L5.56569 5.84431C5.25327 6.15673 5.25327 6.66327 5.56569 6.97569L10.1657 11.5757C10.4001 11.8101 10.4001 12.1899 10.1657 12.4243L5.56569 17.0243C5.25327 17.3367 5.25327 17.8433 5.56569 18.1557L5.84431 18.4343C6.15673 18.7467 6.66327 18.7467 6.97569 18.4343L11.5757 13.8343C11.8101 13.5999 12.1899 13.5999 12.4243 13.8343L17.0243 18.4343C17.3367 18.7467 17.8433 18.7467 18.1557 18.4343L18.4343 18.1557C18.7467 17.8433 18.7467 17.3367 18.4343 17.0243L13.8343 12.4243C13.5999 12.1899 13.5999 11.8101 13.8343 11.5757L18.4343 6.97569Z" fill="#A3AFBF"/>
</svg>
