<svg width="18" height="18" viewBox="0 0 18 18" fill="none" xmlns="http://www.w3.org/2000/svg">
<path d="M12.5782 11.1492H11.8254L11.5586 10.8919C12.4925 9.80555 13.0547 8.39522 13.0547 6.86101C13.0547 3.44001 10.2817 0.666992 6.86068 0.666992C3.43968 0.666992 0.666664 3.44001 0.666664 6.86101C0.666664 10.282 3.43968 13.055 6.86068 13.055C8.39489 13.055 9.80522 12.4928 10.8916 11.5589L11.1488 11.8258V12.5786L15.9135 17.3337L17.3333 15.9138L12.5782 11.1492ZM6.86068 11.1492C4.4879 11.1492 2.57252 9.23379 2.57252 6.86101C2.57252 4.48822 4.4879 2.57284 6.86068 2.57284C9.23347 2.57284 11.1488 4.48822 11.1488 6.86101C11.1488 9.23379 9.23347 11.1492 6.86068 11.1492Z" fill="#A3AFBF"/>
</svg>
